<svg width="113" height="113" viewBox="0 0 113 113" fill="none" xmlns="http://www.w3.org/2000/svg">
<circle cx="56.5" cy="56.5" r="55.5" fill="#F9C140" stroke="#161515" stroke-width="2"/>
<path d="M20.6723 55.5813C18.6365 55.569 19.9519 90.5537 24.8065 101.516C36.083 110.067 43.8297 111.726 58.7965 112.081C76.719 109.833 83.4332 106.529 92.329 98.7603C90.2698 95.1386 89.069 93.1823 87.2762 89.1139C85.8699 85.6625 85.2429 83.7003 85.4388 79.9269C85.8853 75.8527 86.2824 73.5988 88.1949 69.8212C89.0955 67.8807 89.1959 66.9959 89.1136 65.5578C90.1437 64.4112 90.6537 63.2114 90.9529 61.5528C91.4705 57.7744 91.4988 55.5258 91.4122 51.4471C91.126 46.9062 90.4667 44.392 87.7374 39.9634C85.2634 36.2373 83.9832 34.1323 79.0098 30.7764C75.4968 28.7881 73.7237 28.2975 71.2009 29.3984C64.1535 26.5922 60.1096 26.5633 52.8269 28.0203C49.3881 26.5637 47.425 25.8779 43.6399 25.7236C38.1436 25.5779 35.7309 26.1411 32.6155 28.4797C27.9665 32.8075 26.5243 35.1524 27.5627 39.0447C24.2339 41.5614 19.8349 55.0859 20.6723 55.5813Z" fill="#3593FB"/>
<path d="M27.5627 39.0447C28.8771 42.4785 29.8198 43.442 31.6968 44.0975M27.5627 39.0447C26.5243 35.1524 27.9665 32.8075 32.6155 28.4797C35.7309 26.1411 38.1436 25.5779 43.6399 25.7236C47.425 25.8779 49.3881 26.5637 52.8269 28.0203C60.1097 26.5633 64.1535 26.5922 71.2009 29.3984M27.5627 39.0447C24.2339 41.5614 19.8349 55.0859 20.6723 55.5813C18.6365 55.569 19.9519 90.5538 24.8065 101.516C36.083 110.067 43.8297 111.726 58.7965 112.081C76.719 109.833 83.4332 106.529 92.329 98.7603C90.2698 95.1386 89.069 93.1823 87.2762 89.1139C85.8699 85.6625 85.2429 83.7003 85.4388 79.9269C85.8853 75.8527 86.2824 73.5988 88.1949 69.8212C89.0955 67.8807 89.1959 66.9959 89.1136 65.5578M71.2009 29.3984C75.0309 31.6962 75.3571 33.1729 75.7944 35.8293M71.2009 29.3984C73.7237 28.2975 75.4968 28.7881 79.0098 30.7764C83.9832 34.1323 85.2634 36.2373 87.7374 39.9634C90.4667 44.392 91.126 46.9062 91.4122 51.4471C91.4988 55.5258 91.4705 57.7744 90.9529 61.5528C90.6537 63.2114 90.1437 64.4112 89.1136 65.5578M50.5301 81.3049C52.8406 82.3028 54.5509 82.9174 60.1765 82.6829C68.5144 82.1743 70.1758 82.0073 72.5789 79.4675C78.5802 73.4349 81.6356 70.9892 85.4388 68.5C87.1102 67.4308 88.2822 66.4832 89.1136 65.5578M78.0892 90.9513C76.7719 86.2611 77.0126 83.7357 79.9266 79.4675" stroke="#161515" stroke-width="1.2" stroke-linecap="round"/>
<path d="M38.1289 41.8013C41.0581 43.9351 42.9057 44.529 46.3971 45.0167C51.5161 45.581 53.7294 45.4835 56.0435 44.098C56.0435 44.098 60.3883 41.3447 59.7183 37.6671C59.0002 34.68 58.9858 33.1979 55.5841 31.6956C52.1825 30.1933 50.2502 29.3703 45.9378 28.9395C42.3359 28.8059 40.3061 28.8026 36.7508 30.7769C34.4133 32.3713 33.6961 33.3586 33.9947 35.3704C34.4956 37.9867 35.4182 39.393 38.1289 41.8013Z" fill="#F9C140" stroke="#161515" stroke-width="1.2"/>
<circle cx="37.6669" cy="34.9106" r="1.8374" fill="#161515"/>
<path d="M87.7374 39.9628C85.8736 37.1448 84.7578 35.5913 82.2234 33.0726C83.1009 31.9839 83.8454 31.5224 84.9795 30.7758C86.2822 30.0881 86.9871 30.172 88.1949 31.2352C89.8514 32.8134 90.1942 33.8564 90.4917 35.8286C90.7876 39.3151 90.1914 40.5222 89.1136 42.2596L87.7374 39.9628Z" fill="#F9C140" stroke="#161515" stroke-width="1.2" stroke-linecap="round"/>
<circle cx="86.817" cy="33.5323" r="1.37805" fill="#161515"/>
<path d="M35.3756 57.4174C33.715 59.375 33.9288 60.4858 35.3756 62.4702C35.2279 60.4039 35.6805 59.5196 39.0504 59.2548C40.714 59.142 42.068 59.1281 45.9407 59.2548L82.2293 60.6328C85.756 59.0586 86.8228 55.1206 86.8228 55.1206C86.8228 55.1206 87.8723 51.2264 86.3634 49.1491C85.2244 47.8841 84.6843 46.3447 80.3862 46.3937C72.925 46.6182 68.1393 47.4475 61.0992 48.6897C49.2037 50.7134 44.3762 51.6777 41.8065 52.8239C38.8947 54.2973 37.4064 55.2471 35.3756 57.4174Z" fill="#161515" stroke="#161515" stroke-width="1.2"/>
<path d="M55.6463 63.9959C51.0245 60.388 48.7652 58.0395 46 52.5122C48.4252 51.4263 50.4751 50.9255 55.187 50.2154L74.4797 47C73.5745 48.435 73.5813 49.2458 74.0203 50.6748C74.6364 52.2924 75.2708 52.959 77.2213 53.8902C78.3781 52.9826 79.5797 52.591 81.3699 52.5122C84.5502 52.491 85.3364 53.5407 85.5041 56.6463C85.4579 59.6864 84.8224 61.4413 82.2886 64.9146C78.8749 69.522 76.4077 70.4706 71.2642 69.9675C63.7506 68.8135 60.5204 67.5568 55.6463 63.9959Z" fill="#EA5753"/>
<path d="M74.939 67.6707C74.0961 66.057 73.561 65.374 73.561 63.9959C73.561 62.6179 73.4664 58.1982 75.3984 55.7276C76.0435 54.9603 76.6265 54.357 77.2213 53.8902M55.187 50.2154C50.4751 50.9255 48.4252 51.4263 46 52.5122C48.7652 58.0395 51.0245 60.388 55.6463 63.9959C60.5204 67.5568 63.7506 68.8135 71.2642 69.9675C76.4077 70.4706 78.8749 69.522 82.2886 64.9146C84.8224 61.4413 85.4579 59.6864 85.5041 56.6463C85.3364 53.5407 84.5502 52.491 81.3699 52.5122C79.5797 52.591 78.3781 52.9826 77.2213 53.8902M55.187 50.2154C61.2728 52.031 63.3106 53.862 65.2927 58.0244M55.187 50.2154L74.4797 47C73.5745 48.435 73.5813 49.2458 74.0203 50.6748C74.6364 52.2924 75.2708 52.959 77.2213 53.8902M78.1545 54.8089C80.209 56.8047 80.4358 58.2543 79.5325 61.2398" stroke="#161515" stroke-width="1.2" stroke-linecap="round"/>
<path d="M33.5341 73.9558C30.0487 75.0385 28.7776 75.86 28.9406 78.09C29.8857 81.82 31.2571 83.8164 34.9122 87.277C37.3659 89.2166 39.965 88.6549 40.4244 86.3583C40.8837 84.0616 40.7046 83.0084 39.965 80.8461C37.3308 75.5687 35.8886 73.5637 33.5341 73.9558Z" fill="#3F5FB6" stroke="#161515" stroke-width="1.2"/>
<path d="M35.3367 92.8101C33.287 92.6297 32.4642 92.766 32.157 93.8548C32.0017 95.8098 32.3801 97.0283 33.7173 99.3946C34.6827 100.802 36.1678 101.052 36.8186 100.056C37.4694 99.0592 37.56 98.5247 37.5478 97.3532C37.076 94.3293 36.6613 93.0926 35.3367 92.8101Z" fill="#3F5FB6" stroke="#161515" stroke-width="1.2"/>
<path d="M25.902 82.1281C24.8044 83.0077 24.4562 83.5706 24.7864 84.8244C25.576 86.8703 26.3041 87.8996 28.0171 89.5866C29.1202 90.5013 29.9687 89.9849 29.85 88.646C29.7313 87.3072 29.5393 86.7228 29.0139 85.5513C27.439 82.7553 26.6849 81.7265 25.902 82.1281Z" fill="#3F5FB6" stroke="#161515" stroke-width="1.2"/>
</svg>
