<svg width="19" height="18" viewBox="0 0 19 18" fill="none" xmlns="http://www.w3.org/2000/svg">
<path d="M6.25 3C6.25 4.13834 5.13141 5.25 3.5 5.25C1.86859 5.25 0.75 4.13834 0.75 3C0.75 1.86166 1.86859 0.75 3.5 0.75C5.13141 0.75 6.25 1.86166 6.25 3Z" stroke="black" stroke-width="2"/>
<path d="M6.25 15C6.25 16.1383 5.13141 17.25 3.5 17.25C1.86859 17.25 0.75 16.1383 0.75 15C0.75 13.8617 1.86859 12.75 3.5 12.75C5.13141 12.75 6.25 13.8617 6.25 15Z" stroke="black" stroke-width="2"/>
<circle cx="16" cy="3" r="2.25" stroke="black" stroke-width="2"/>
<circle cx="16" cy="15" r="2.25" stroke="black" stroke-width="2"/>
</svg>
